<svg xmlns="http://www.w3.org/2000/svg" width="1440" height="1302" viewBox="0 0 1440 1302" role="img" aria-label="C01 · Good morning, Alex.">
<title>C01 · Good morning, Alex.</title>
<desc>FSS proposed interface. Text and shapes are editable SVG elements. Synthetic example data.</desc>
<rect x="0" y="0" width="1440" height="1302" rx="0" fill="#f2f3f5"/>
<text x="280" y="64" font-family="Geist,Arial,sans-serif" font-size="12" font-weight="500" fill="#46566c">NORTHSTAR STUDIO / HOME</text>
<rect x="1226" y="40" width="148" height="44" rx="12" fill="#ffffff" stroke="#788696"/>
<text x="1246" y="66" font-family="Geist,Arial,sans-serif" font-size="14" font-weight="500" fill="#0a1a2e">Notifications · 3</text>
<a href="../wireframes.html#C21" target="_top" aria-label="Notifications · 3"><rect x="1226" y="40" width="148" height="44" fill="transparent"/></a>
<text x="280" y="152" font-family="Geist,Arial,sans-serif" font-size="36" font-weight="600" fill="#0a1a2e">Good morning, Alex.</text>
<text x="280" y="192" font-family="Geist,Arial,sans-serif" font-size="16" font-weight="400" fill="#46566c">Here is where things stand with Northstar Studio.</text>
<rect x="280" y="223" width="129" height="44" rx="12" fill="#0f7078"/>
<text x="300" y="249" font-family="Geist,Arial,sans-serif" font-size="14" font-weight="500" fill="#ffffff">New request</text>
<a href="../wireframes.html#C06" target="_top" aria-label="New request"><rect x="280" y="223" width="129" height="44" fill="transparent"/></a>
<rect x="280" y="291" width="1112" height="231" rx="16" fill="#07182e" stroke="#d9dfe5"/>
<text x="304" y="326" font-family="Geist,Arial,sans-serif" font-size="11" font-weight="500" fill="#ffffff">YOUR NEXT STEP</text>
<text x="304" y="377" font-family="Geist,Arial,sans-serif" font-size="30" font-weight="600" fill="#ffffff">Your booking flow is ready.</text>
<text x="304" y="423" font-family="Geist,Arial,sans-serif" font-size="16" font-weight="400" fill="#ffffff">Review the updated prototype and tell us whether it meets the agreed outcome.</text>
<rect x="304" y="454" width="169" height="44" rx="12" fill="#ffffff" stroke="#788696"/>
<text x="324" y="480" font-family="Geist,Arial,sans-serif" font-size="14" font-weight="500" fill="#0a1a2e">Review the update</text>
<a href="../wireframes.html#C09" target="_top" aria-label="Review the update"><rect x="304" y="454" width="169" height="44" fill="transparent"/></a>
<rect x="280.0" y="546" width="360.0" height="126" rx="16" fill="#ffffff" stroke="#d9dfe5"/>
<text x="304.0" y="602" font-family="Geist,Arial,sans-serif" font-size="32" font-weight="600" fill="#0a1a2e">1</text>
<text x="304.0" y="624" font-family="Geist,Arial,sans-serif" font-size="14" font-weight="400" fill="#46566c">Waiting for you</text>
<rect x="656.0" y="546" width="360.0" height="126" rx="16" fill="#ffffff" stroke="#d9dfe5"/>
<text x="680.0" y="602" font-family="Geist,Arial,sans-serif" font-size="32" font-weight="600" fill="#0a1a2e">3</text>
<text x="680.0" y="624" font-family="Geist,Arial,sans-serif" font-size="14" font-weight="400" fill="#46566c">In delivery</text>
<rect x="1032.0" y="546" width="360.0" height="126" rx="16" fill="#ffffff" stroke="#d9dfe5"/>
<text x="1056.0" y="602" font-family="Geist,Arial,sans-serif" font-size="32" font-weight="600" fill="#0a1a2e">24 Sep</text>
<text x="1056.0" y="624" font-family="Geist,Arial,sans-serif" font-size="14" font-weight="400" fill="#46566c">Next milestone</text>
<rect x="280" y="696" width="1112" height="247" rx="16" fill="#ffffff" stroke="#d9dfe5"/>
<text x="304" y="740" font-family="Geist,Arial,sans-serif" font-size="20" font-weight="600" fill="#0a1a2e">Your next steps</text>
<text x="304" y="785" font-family="Geist,Arial,sans-serif" font-size="16" font-weight="500" fill="#0a1a2e">Review booking flow · v3</text>
<text x="304" y="812" font-family="Geist,Arial,sans-serif" font-size="14" font-weight="400" fill="#46566c">Ready for review · Alex Morgan · requested today</text>
<rect x="1240" y="771" width="128" height="44" rx="12" fill="#ffffff" stroke="#788696"/>
<text x="1260" y="797" font-family="Geist,Arial,sans-serif" font-size="14" font-weight="500" fill="#0a1a2e">Open review</text>
<a href="../wireframes.html#C09" target="_top" aria-label="Open review"><rect x="1240" y="771" width="128" height="44" fill="transparent"/></a>
<text x="304" y="860" font-family="Geist,Arial,sans-serif" font-size="16" font-weight="500" fill="#0a1a2e">Upload your approved brand assets</text>
<text x="304" y="887" font-family="Geist,Arial,sans-serif" font-size="14" font-weight="400" fill="#46566c">Needed before development · due 18 Sep</text>
<rect x="1250" y="846" width="118" height="44" rx="12" fill="#ffffff" stroke="#788696"/>
<text x="1270" y="872" font-family="Geist,Arial,sans-serif" font-size="14" font-weight="500" fill="#0a1a2e">Add assets</text>
<a href="../wireframes.html#S07" target="_top" aria-label="Add assets"><rect x="1250" y="846" width="118" height="44" fill="transparent"/></a>
<rect x="280" y="967" width="1112" height="247" rx="16" fill="#ffffff" stroke="#d9dfe5"/>
<text x="304" y="1011" font-family="Geist,Arial,sans-serif" font-size="20" font-weight="600" fill="#0a1a2e">Your project</text>
<text x="304" y="1056" font-family="Geist,Arial,sans-serif" font-size="16" font-weight="500" fill="#0a1a2e">Website &amp; booking experience</text>
<text x="304" y="1083" font-family="Geist,Arial,sans-serif" font-size="14" font-weight="400" fill="#46566c">Design phase · Jean-Fidele · next update Friday</text>
<rect x="1239" y="1042" width="129" height="44" rx="12" fill="#ffffff" stroke="#788696"/>
<text x="1259" y="1068" font-family="Geist,Arial,sans-serif" font-size="14" font-weight="500" fill="#0a1a2e">View project</text>
<a href="../wireframes.html#C04" target="_top" aria-label="View project"><rect x="1239" y="1042" width="129" height="44" fill="transparent"/></a>
<text x="304" y="1131" font-family="Geist,Arial,sans-serif" font-size="16" font-weight="500" fill="#0a1a2e">Latest update</text>
<text x="304" y="1158" font-family="Geist,Arial,sans-serif" font-size="14" font-weight="400" fill="#46566c">The booking journey is ready for your review. Development starts after approval.</text>
<rect x="1241" y="1117" width="127" height="44" rx="12" fill="#ffffff" stroke="#788696"/>
<text x="1261" y="1143" font-family="Geist,Arial,sans-serif" font-size="14" font-weight="500" fill="#0a1a2e">Read update</text>
<a href="../wireframes.html#C01" target="_top" aria-label="Read update"><rect x="1241" y="1117" width="127" height="44" fill="transparent"/></a>
<text x="280" y="1250" font-family="Geist,Arial,sans-serif" font-size="12" font-weight="400" fill="#46566c">Faithful Software Solutions · Built on trust. Delivered with care.</text>
<rect x="0" y="0" width="232" height="1302" rx="0" fill="#f7f8f9" stroke="#d9dfe5"/>
<text x="24" y="58" font-family="Geist,Arial,sans-serif" font-size="30" font-weight="700" fill="#0a1a2e">FSS</text>
<text x="24" y="88" font-family="Geist,Arial,sans-serif" font-size="10" font-weight="500" fill="#46566c">YOUR STUDIO WORKSPACE</text>
<rect x="20" y="112" width="192" height="78" rx="16" fill="#ffffff" stroke="#d9dfe5"/>
<text x="32" y="140" font-family="Geist,Arial,sans-serif" font-size="14" font-weight="600" fill="#0a1a2e">Northstar Studio</text>
<text x="32" y="165" font-family="Geist,Arial,sans-serif" font-size="12" font-weight="400" fill="#46566c">Client workspace ▾</text>
<rect x="20" y="216" width="192" height="44" rx="12" fill="#e3f2f1"/>
<rect x="34" y="232" width="12" height="12" rx="3" fill="#f7f8f9" stroke="#0f7078"/>
<text x="60" y="242" font-family="Geist,Arial,sans-serif" font-size="14" font-weight="500" fill="#0f7078">Home</text>
<rect x="34" y="280" width="12" height="12" rx="3" fill="#f7f8f9" stroke="#46566c"/>
<text x="60" y="290" font-family="Geist,Arial,sans-serif" font-size="14" font-weight="500" fill="#46566c">Getting started</text>
<rect x="34" y="328" width="12" height="12" rx="3" fill="#f7f8f9" stroke="#46566c"/>
<text x="60" y="338" font-family="Geist,Arial,sans-serif" font-size="14" font-weight="500" fill="#46566c">Projects</text>
<rect x="34" y="376" width="12" height="12" rx="3" fill="#f7f8f9" stroke="#46566c"/>
<text x="60" y="386" font-family="Geist,Arial,sans-serif" font-size="14" font-weight="500" fill="#46566c">Requests</text>
<rect x="34" y="424" width="12" height="12" rx="3" fill="#f7f8f9" stroke="#46566c"/>
<text x="60" y="434" font-family="Geist,Arial,sans-serif" font-size="14" font-weight="500" fill="#46566c">Documents</text>
<rect x="34" y="472" width="12" height="12" rx="3" fill="#f7f8f9" stroke="#46566c"/>
<text x="60" y="482" font-family="Geist,Arial,sans-serif" font-size="14" font-weight="500" fill="#46566c">Agreements</text>
<rect x="34" y="520" width="12" height="12" rx="3" fill="#f7f8f9" stroke="#46566c"/>
<text x="60" y="530" font-family="Geist,Arial,sans-serif" font-size="14" font-weight="500" fill="#46566c">Billing</text>
<rect x="34" y="568" width="12" height="12" rx="3" fill="#f7f8f9" stroke="#46566c"/>
<text x="60" y="578" font-family="Geist,Arial,sans-serif" font-size="14" font-weight="500" fill="#46566c">Services</text>
<rect x="34" y="616" width="12" height="12" rx="3" fill="#f7f8f9" stroke="#46566c"/>
<text x="60" y="626" font-family="Geist,Arial,sans-serif" font-size="14" font-weight="500" fill="#46566c">Notifications</text>
<rect x="34" y="664" width="12" height="12" rx="3" fill="#f7f8f9" stroke="#46566c"/>
<text x="60" y="674" font-family="Geist,Arial,sans-serif" font-size="14" font-weight="500" fill="#46566c">Help</text>
<rect x="34" y="712" width="12" height="12" rx="3" fill="#f7f8f9" stroke="#46566c"/>
<text x="60" y="722" font-family="Geist,Arial,sans-serif" font-size="14" font-weight="500" fill="#46566c">Settings</text>
<text x="24" y="764" font-family="Geist,Arial,sans-serif" font-size="12" font-weight="400" fill="#46566c">Alex Morgan</text>
<text x="24" y="781" font-family="Geist,Arial,sans-serif" font-size="12" font-weight="400" fill="#46566c">Northstar Studio</text></svg>