<svg xmlns="http://www.w3.org/2000/svg" width="1440" height="1024" viewBox="0 0 1440 1024" role="img" aria-label="C19 · Support for what comes next.">
<title>C19 · Support for what comes next.</title>
<desc>FSS proposed interface. Text and shapes are editable SVG elements. Synthetic example data.</desc>
<rect x="0" y="0" width="1440" height="1024" rx="0" fill="#f2f3f5"/>
<text x="280" y="64" font-family="Geist,Arial,sans-serif" font-size="12" font-weight="500" fill="#46566c">NORTHSTAR STUDIO / SERVICES</text>
<rect x="1226" y="40" width="148" height="44" rx="12" fill="#ffffff" stroke="#788696"/>
<text x="1246" y="66" font-family="Geist,Arial,sans-serif" font-size="14" font-weight="500" fill="#0a1a2e">Notifications · 3</text>
<a href="../wireframes.html#C21" target="_top" aria-label="Notifications · 3"><rect x="1226" y="40" width="148" height="44" fill="transparent"/></a>
<text x="280" y="152" font-family="Geist,Arial,sans-serif" font-size="36" font-weight="600" fill="#0a1a2e">Support for what comes next.</text>
<text x="280" y="192" font-family="Geist,Arial,sans-serif" font-size="16" font-weight="400" fill="#46566c">Your services and ways we can help.</text>
<rect x="280" y="223" width="176" height="44" rx="12" fill="#0f7078"/>
<text x="300" y="249" font-family="Geist,Arial,sans-serif" font-size="14" font-weight="500" fill="#ffffff">Ask about a service</text>
<a href="../wireframes.html#C20" target="_top" aria-label="Ask about a service"><rect x="280" y="223" width="176" height="44" fill="transparent"/></a>
<rect x="280" y="291" width="1112" height="172" rx="16" fill="#ffffff" stroke="#d9dfe5"/>
<text x="304" y="335" font-family="Geist,Arial,sans-serif" font-size="20" font-weight="600" fill="#0a1a2e">Your active services</text>
<text x="304" y="380" font-family="Geist,Arial,sans-serif" font-size="16" font-weight="500" fill="#0a1a2e">Website delivery</text>
<text x="304" y="407" font-family="Geist,Arial,sans-serif" font-size="14" font-weight="400" fill="#46566c">Website &amp; booking experience · in delivery</text>
<rect x="1247" y="366" width="121" height="44" rx="12" fill="#ffffff" stroke="#788696"/>
<text x="1267" y="392" font-family="Geist,Arial,sans-serif" font-size="14" font-weight="500" fill="#0a1a2e">View scope</text>
<a href="../wireframes.html#C19" target="_top" aria-label="View scope"><rect x="1247" y="366" width="121" height="44" fill="transparent"/></a>
<rect x="280" y="487" width="1112" height="247" rx="16" fill="#ffffff" stroke="#d9dfe5"/>
<text x="304" y="531" font-family="Geist,Arial,sans-serif" font-size="20" font-weight="600" fill="#0a1a2e">Explore services</text>
<text x="304" y="576" font-family="Geist,Arial,sans-serif" font-size="16" font-weight="500" fill="#0a1a2e">Website care</text>
<text x="304" y="603" font-family="Geist,Arial,sans-serif" font-size="14" font-weight="400" fill="#46566c">Maintenance, updates and agreed support. Scope and pricing confirmed in a proposal.</text>
<rect x="1240" y="562" width="128" height="44" rx="12" fill="#ffffff" stroke="#788696"/>
<text x="1260" y="588" font-family="Geist,Arial,sans-serif" font-size="14" font-weight="500" fill="#0a1a2e">Explore care</text>
<a href="../wireframes.html#C20" target="_top" aria-label="Explore care"><rect x="1240" y="562" width="128" height="44" fill="transparent"/></a>
<text x="304" y="651" font-family="Geist,Arial,sans-serif" font-size="16" font-weight="500" fill="#0a1a2e">Workflow improvements</text>
<text x="304" y="678" font-family="Geist,Arial,sans-serif" font-size="14" font-weight="400" fill="#46566c">Remove repetitive steps with focused automation.</text>
<rect x="1222" y="637" width="146" height="44" rx="12" fill="#ffffff" stroke="#788696"/>
<text x="1242" y="663" font-family="Geist,Arial,sans-serif" font-size="14" font-weight="500" fill="#0a1a2e">Discuss an idea</text>
<a href="../wireframes.html#C19" target="_top" aria-label="Discuss an idea"><rect x="1222" y="637" width="146" height="44" fill="transparent"/></a>
<rect x="280" y="758" width="1112" height="99" rx="16" fill="#e3f2f1" stroke="#d9dfe5"/>
<text x="304" y="798" font-family="Geist,Arial,sans-serif" font-size="16" font-weight="600" fill="#0f7078">A conversation first</text>
<text x="304" y="827" font-family="Geist,Arial,sans-serif" font-size="14" font-weight="400" fill="#46566c">An enquiry starts a discussion. It does not activate a service or charge your payment method.</text>
<text x="280" y="893" font-family="Geist,Arial,sans-serif" font-size="12" font-weight="400" fill="#46566c">Faithful Software Solutions · Built on trust. Delivered with care.</text>
<rect x="0" y="0" width="232" height="1024" rx="0" fill="#f7f8f9" stroke="#d9dfe5"/>
<text x="24" y="58" font-family="Geist,Arial,sans-serif" font-size="30" font-weight="700" fill="#0a1a2e">FSS</text>
<text x="24" y="88" font-family="Geist,Arial,sans-serif" font-size="10" font-weight="500" fill="#46566c">YOUR STUDIO WORKSPACE</text>
<rect x="20" y="112" width="192" height="78" rx="16" fill="#ffffff" stroke="#d9dfe5"/>
<text x="32" y="140" font-family="Geist,Arial,sans-serif" font-size="14" font-weight="600" fill="#0a1a2e">Northstar Studio</text>
<text x="32" y="165" font-family="Geist,Arial,sans-serif" font-size="12" font-weight="400" fill="#46566c">Client workspace ▾</text>
<rect x="34" y="232" width="12" height="12" rx="3" fill="#f7f8f9" stroke="#46566c"/>
<text x="60" y="242" font-family="Geist,Arial,sans-serif" font-size="14" font-weight="500" fill="#46566c">Home</text>
<rect x="34" y="280" width="12" height="12" rx="3" fill="#f7f8f9" stroke="#46566c"/>
<text x="60" y="290" font-family="Geist,Arial,sans-serif" font-size="14" font-weight="500" fill="#46566c">Getting started</text>
<rect x="34" y="328" width="12" height="12" rx="3" fill="#f7f8f9" stroke="#46566c"/>
<text x="60" y="338" font-family="Geist,Arial,sans-serif" font-size="14" font-weight="500" fill="#46566c">Projects</text>
<rect x="34" y="376" width="12" height="12" rx="3" fill="#f7f8f9" stroke="#46566c"/>
<text x="60" y="386" font-family="Geist,Arial,sans-serif" font-size="14" font-weight="500" fill="#46566c">Requests</text>
<rect x="34" y="424" width="12" height="12" rx="3" fill="#f7f8f9" stroke="#46566c"/>
<text x="60" y="434" font-family="Geist,Arial,sans-serif" font-size="14" font-weight="500" fill="#46566c">Documents</text>
<rect x="34" y="472" width="12" height="12" rx="3" fill="#f7f8f9" stroke="#46566c"/>
<text x="60" y="482" font-family="Geist,Arial,sans-serif" font-size="14" font-weight="500" fill="#46566c">Agreements</text>
<rect x="34" y="520" width="12" height="12" rx="3" fill="#f7f8f9" stroke="#46566c"/>
<text x="60" y="530" font-family="Geist,Arial,sans-serif" font-size="14" font-weight="500" fill="#46566c">Billing</text>
<rect x="20" y="552" width="192" height="44" rx="12" fill="#e3f2f1"/>
<rect x="34" y="568" width="12" height="12" rx="3" fill="#f7f8f9" stroke="#0f7078"/>
<text x="60" y="578" font-family="Geist,Arial,sans-serif" font-size="14" font-weight="500" fill="#0f7078">Services</text>
<rect x="34" y="616" width="12" height="12" rx="3" fill="#f7f8f9" stroke="#46566c"/>
<text x="60" y="626" font-family="Geist,Arial,sans-serif" font-size="14" font-weight="500" fill="#46566c">Notifications</text>
<rect x="34" y="664" width="12" height="12" rx="3" fill="#f7f8f9" stroke="#46566c"/>
<text x="60" y="674" font-family="Geist,Arial,sans-serif" font-size="14" font-weight="500" fill="#46566c">Help</text>
<rect x="34" y="712" width="12" height="12" rx="3" fill="#f7f8f9" stroke="#46566c"/>
<text x="60" y="722" font-family="Geist,Arial,sans-serif" font-size="14" font-weight="500" fill="#46566c">Settings</text>
<text x="24" y="764" font-family="Geist,Arial,sans-serif" font-size="12" font-weight="400" fill="#46566c">Alex Morgan</text>
<text x="24" y="781" font-family="Geist,Arial,sans-serif" font-size="12" font-weight="400" fill="#46566c">Northstar Studio</text></svg>