<svg xmlns="http://www.w3.org/2000/svg" width="1440" height="1603" viewBox="0 0 1440 1603" role="img" aria-label="F15 · Review before sending">
<title>F15 · Review before sending</title>
<desc>FSS proposed interface. Text and shapes are editable SVG elements. Synthetic example data.</desc>
<rect x="0" y="0" width="1440" height="1603" rx="0" fill="#f2f3f5"/>
<text x="280" y="64" font-family="Geist,Arial,sans-serif" font-size="12" font-weight="500" fill="#46566c">STUDIO / AGREEMENTS</text>
<rect x="1226" y="40" width="148" height="44" rx="12" fill="#ffffff" stroke="#788696"/>
<text x="1246" y="66" font-family="Geist,Arial,sans-serif" font-size="14" font-weight="500" fill="#0a1a2e">Notifications · 3</text>
<a href="../wireframes.html#F29" target="_top" aria-label="Notifications · 3"><rect x="1226" y="40" width="148" height="44" fill="transparent"/></a>
<text x="280" y="152" font-family="Geist,Arial,sans-serif" font-size="36" font-weight="600" fill="#0a1a2e">Review before sending</text>
<text x="280" y="192" font-family="Geist,Arial,sans-serif" font-size="16" font-weight="400" fill="#46566c">Step 6 · Northstar Studio · Revision 2</text>
<rect x="280" y="223" width="1112" height="90" rx="16" fill="#ffffff" stroke="#d9dfe5"/>
<text x="304" y="259" font-family="Geist,Arial,sans-serif" font-size="12" font-weight="600" fill="#0f7078">STEP 6 OF 6 / PREVIEW &amp; APPROVE</text>
<rect x="304.0" y="281" width="170.66666666666666" height="4" rx="2" fill="#0f7078"/>
<rect x="482.66666666666663" y="281" width="170.66666666666666" height="4" rx="2" fill="#0f7078"/>
<rect x="661.3333333333333" y="281" width="170.66666666666666" height="4" rx="2" fill="#0f7078"/>
<rect x="840.0" y="281" width="170.66666666666666" height="4" rx="2" fill="#0f7078"/>
<rect x="1018.6666666666666" y="281" width="170.66666666666666" height="4" rx="2" fill="#0f7078"/>
<rect x="1197.3333333333333" y="281" width="170.66666666666666" height="4" rx="2" fill="#0f7078"/>
<rect x="280.0" y="337" width="360.0" height="126" rx="16" fill="#ffffff" stroke="#d9dfe5"/>
<text x="304.0" y="393" font-family="Geist,Arial,sans-serif" font-size="32" font-weight="600" fill="#0a1a2e">£4,800</text>
<text x="304.0" y="415" font-family="Geist,Arial,sans-serif" font-size="14" font-weight="400" fill="#46566c">Agreement total</text>
<rect x="656.0" y="337" width="360.0" height="126" rx="16" fill="#ffffff" stroke="#d9dfe5"/>
<text x="680.0" y="393" font-family="Geist,Arial,sans-serif" font-size="32" font-weight="600" fill="#0a1a2e">£1,200</text>
<text x="680.0" y="415" font-family="Geist,Arial,sans-serif" font-size="14" font-weight="400" fill="#46566c">Initial deposit</text>
<rect x="1032.0" y="337" width="360.0" height="126" rx="16" fill="#ffffff" stroke="#d9dfe5"/>
<text x="1056.0" y="393" font-family="Geist,Arial,sans-serif" font-size="32" font-weight="600" fill="#0a1a2e">2</text>
<text x="1056.0" y="415" font-family="Geist,Arial,sans-serif" font-size="14" font-weight="400" fill="#46566c">Required signers</text>
<rect x="280" y="487" width="1112" height="368" rx="16" fill="#ffffff" stroke="#d9dfe5"/>
<text x="304" y="531" font-family="Geist,Arial,sans-serif" font-size="20" font-weight="600" fill="#0a1a2e">Website &amp; booking experience</text>
<rect x="304" y="560" width="1064" height="238" rx="12" fill="#f7f8f9" stroke="#d9dfe5"/>
<text x="328" y="595" font-family="Geist,Arial,sans-serif" font-size="11" font-weight="500" fill="#0f7078">FAITHFUL SOFTWARE SOLUTIONS</text>
<text x="328" y="650" font-family="Geist,Arial,sans-serif" font-size="26" font-weight="600" fill="#0a1a2e">Website &amp; booking experience</text>
<text x="328" y="698" font-family="Geist,Arial,sans-serif" font-size="16" font-weight="400" fill="#46566c">Client: Northstar Studio</text>
<text x="328" y="721" font-family="Geist,Arial,sans-serif" font-size="16" font-weight="400" fill="#46566c">Outcome: a clear online booking journey</text>
<text x="328" y="744" font-family="Geist,Arial,sans-serif" font-size="16" font-weight="400" fill="#46566c">Scope: five pages, booking flow and confirmation</text>
<text x="328" y="767" font-family="Geist,Arial,sans-serif" font-size="16" font-weight="400" fill="#46566c">Payment: £1,200 deposit + three milestone payments</text>
<text x="304" y="826" font-family="Geist,Arial,sans-serif" font-size="12" font-weight="400" fill="#46566c">Revision 2 · exact document retained for signing</text>
<rect x="280" y="879" width="1112" height="389" rx="16" fill="#ffffff" stroke="#d9dfe5"/>
<text x="304" y="923" font-family="Geist,Arial,sans-serif" font-size="20" font-weight="600" fill="#0a1a2e">Readiness checks</text>
<rect x="304" y="952" width="32" height="32" rx="10" fill="#eaf5ed"/>
<text x="314" y="972" font-family="Geist,Arial,sans-serif" font-size="14" font-weight="600" fill="#226143">✓</text>
<text x="352" y="968" font-family="Geist,Arial,sans-serif" font-size="16" font-weight="500" fill="#0a1a2e">Engagement linked</text>
<text x="352" y="995" font-family="Geist,Arial,sans-serif" font-size="14" font-weight="400" fill="#46566c">Website &amp; booking experience</text>
<rect x="304" y="1025" width="32" height="32" rx="10" fill="#eaf5ed"/>
<text x="314" y="1045" font-family="Geist,Arial,sans-serif" font-size="14" font-weight="600" fill="#226143">✓</text>
<text x="352" y="1041" font-family="Geist,Arial,sans-serif" font-size="16" font-weight="500" fill="#0a1a2e">Fees and schedule reconcile</text>
<text x="352" y="1068" font-family="Geist,Arial,sans-serif" font-size="14" font-weight="400" fill="#46566c">Total £4,800</text>
<rect x="304" y="1098" width="32" height="32" rx="10" fill="#eaf5ed"/>
<text x="314" y="1118" font-family="Geist,Arial,sans-serif" font-size="14" font-weight="600" fill="#226143">✓</text>
<text x="352" y="1114" font-family="Geist,Arial,sans-serif" font-size="16" font-weight="500" fill="#0a1a2e">Signers and access reviewed</text>
<text x="352" y="1141" font-family="Geist,Arial,sans-serif" font-size="14" font-weight="400" fill="#46566c">Alex Morgan + Jean-Fidele</text>
<rect x="304" y="1171" width="32" height="32" rx="10" fill="#eaf5ed"/>
<text x="314" y="1191" font-family="Geist,Arial,sans-serif" font-size="14" font-weight="600" fill="#226143">✓</text>
<text x="352" y="1187" font-family="Geist,Arial,sans-serif" font-size="16" font-weight="500" fill="#0a1a2e">Document preview reviewed</text>
<text x="352" y="1214" font-family="Geist,Arial,sans-serif" font-size="14" font-weight="400" fill="#46566c">Revision 2</text>
<rect x="280" y="1292" width="1112" height="99" rx="16" fill="#e3f2f1" stroke="#d9dfe5"/>
<text x="304" y="1332" font-family="Geist,Arial,sans-serif" font-size="16" font-weight="600" fill="#0f7078">Sending choice</text>
<text x="304" y="1361" font-family="Geist,Arial,sans-serif" font-size="14" font-weight="400" fill="#46566c">Send the signing request now or attach this approved revision to a welcome journey. The same signing notice must not be sent twice.</text>
<rect x="280" y="1415" width="211" height="44" rx="12" fill="#0f7078"/>
<text x="300" y="1441" font-family="Geist,Arial,sans-serif" font-size="14" font-weight="500" fill="#ffffff">Approve signing request</text>
<a href="../wireframes.html#F37" target="_top" aria-label="Approve signing request"><rect x="280" y="1415" width="211" height="44" fill="transparent"/></a>
<rect x="280" y="1471" width="112" height="44" rx="12" fill="#ffffff" stroke="#788696"/>
<text x="300" y="1497" font-family="Geist,Arial,sans-serif" font-size="14" font-weight="500" fill="#0a1a2e">Save draft</text>
<text x="280" y="1551" font-family="Geist,Arial,sans-serif" font-size="12" font-weight="400" fill="#46566c">Faithful Software Solutions · Built on trust. Delivered with care.</text>
<rect x="0" y="0" width="232" height="1603" rx="0" fill="#f7f8f9" stroke="#d9dfe5"/>
<text x="24" y="58" font-family="Geist,Arial,sans-serif" font-size="30" font-weight="700" fill="#0a1a2e">FSS</text>
<text x="24" y="88" font-family="Geist,Arial,sans-serif" font-size="10" font-weight="500" fill="#46566c">STUDIO OPERATIONS</text>
<rect x="20" y="112" width="192" height="78" rx="16" fill="#ffffff" stroke="#d9dfe5"/>
<text x="32" y="140" font-family="Geist,Arial,sans-serif" font-size="14" font-weight="600" fill="#0a1a2e">Founder workspace</text>
<text x="32" y="165" font-family="Geist,Arial,sans-serif" font-size="12" font-weight="400" fill="#46566c">All clients ▾</text>
<rect x="34" y="232" width="12" height="12" rx="3" fill="#f7f8f9" stroke="#46566c"/>
<text x="60" y="242" font-family="Geist,Arial,sans-serif" font-size="14" font-weight="500" fill="#46566c">Overview</text>
<rect x="34" y="280" width="12" height="12" rx="3" fill="#f7f8f9" stroke="#46566c"/>
<text x="60" y="290" font-family="Geist,Arial,sans-serif" font-size="14" font-weight="500" fill="#46566c">Clients</text>
<rect x="34" y="328" width="12" height="12" rx="3" fill="#f7f8f9" stroke="#46566c"/>
<text x="60" y="338" font-family="Geist,Arial,sans-serif" font-size="14" font-weight="500" fill="#46566c">Delivery</text>
<rect x="20" y="360" width="192" height="44" rx="12" fill="#e3f2f1"/>
<rect x="34" y="376" width="12" height="12" rx="3" fill="#f7f8f9" stroke="#0f7078"/>
<text x="60" y="386" font-family="Geist,Arial,sans-serif" font-size="14" font-weight="500" fill="#0f7078">Agreements</text>
<rect x="34" y="424" width="12" height="12" rx="3" fill="#f7f8f9" stroke="#46566c"/>
<text x="60" y="434" font-family="Geist,Arial,sans-serif" font-size="14" font-weight="500" fill="#46566c">Welcome journeys</text>
<rect x="34" y="472" width="12" height="12" rx="3" fill="#f7f8f9" stroke="#46566c"/>
<text x="60" y="482" font-family="Geist,Arial,sans-serif" font-size="14" font-weight="500" fill="#46566c">Projects</text>
<rect x="34" y="520" width="12" height="12" rx="3" fill="#f7f8f9" stroke="#46566c"/>
<text x="60" y="530" font-family="Geist,Arial,sans-serif" font-size="14" font-weight="500" fill="#46566c">Billing</text>
<rect x="34" y="568" width="12" height="12" rx="3" fill="#f7f8f9" stroke="#46566c"/>
<text x="60" y="578" font-family="Geist,Arial,sans-serif" font-size="14" font-weight="500" fill="#46566c">Portal access</text>
<rect x="34" y="616" width="12" height="12" rx="3" fill="#f7f8f9" stroke="#46566c"/>
<text x="60" y="626" font-family="Geist,Arial,sans-serif" font-size="14" font-weight="500" fill="#46566c">Notifications</text>
<rect x="34" y="664" width="12" height="12" rx="3" fill="#f7f8f9" stroke="#46566c"/>
<text x="60" y="674" font-family="Geist,Arial,sans-serif" font-size="14" font-weight="500" fill="#46566c">Settings</text>
<text x="24" y="716" font-family="Geist,Arial,sans-serif" font-size="12" font-weight="400" fill="#46566c">Jean-Fidele</text>
<text x="24" y="733" font-family="Geist,Arial,sans-serif" font-size="12" font-weight="400" fill="#46566c">Founder</text></svg>