<svg
  xmlns="http://www.w3.org/2000/svg"
  viewBox="0 0 900 540"
  role="img"
  aria-labelledby="title desc"
>
  <title id="title">Custom portals for service teams</title>
  <desc id="desc">
    FSS editorial cover image with a light technical grid, navy interface
    panels, and teal system accents.
  </desc>
  <rect width="900" height="540" fill="#f2f3f5" />
  <g stroke="#0a1a2e" stroke-opacity=".045" stroke-width="1">
    <line x1="90" y1="0" x2="90" y2="540" />
    <line x1="180" y1="0" x2="180" y2="540" />
    <line x1="270" y1="0" x2="270" y2="540" />
    <line x1="360" y1="0" x2="360" y2="540" />
    <line x1="450" y1="0" x2="450" y2="540" />
    <line x1="540" y1="0" x2="540" y2="540" />
    <line x1="630" y1="0" x2="630" y2="540" />
    <line x1="720" y1="0" x2="720" y2="540" />
    <line x1="810" y1="0" x2="810" y2="540" />
    <line x1="0" y1="90" x2="900" y2="90" />
    <line x1="0" y1="180" x2="900" y2="180" />
    <line x1="0" y1="270" x2="900" y2="270" />
    <line x1="0" y1="360" x2="900" y2="360" />
    <line x1="0" y1="450" x2="900" y2="450" />
  </g>
  <g fill="none" stroke="#14989e" stroke-opacity=".18" stroke-width="1.2">
    <path d="M626 72 692 118 766 84 838 142" />
    <path d="M650 256 716 224 790 282 852 246" />
    <path d="M102 380 168 342 236 392 318 354" />
  </g>
  <g fill="#14989e" fill-opacity=".38">
    <circle cx="626" cy="72" r="3" />
    <circle cx="692" cy="118" r="3" />
    <circle cx="766" cy="84" r="3" />
    <circle cx="838" cy="142" r="3" />
    <circle cx="650" cy="256" r="3" />
    <circle cx="716" cy="224" r="3" />
    <circle cx="790" cy="282" r="3" />
    <circle cx="852" cy="246" r="3" />
    <circle cx="102" cy="380" r="3" />
    <circle cx="168" cy="342" r="3" />
    <circle cx="236" cy="392" r="3" />
    <circle cx="318" cy="354" r="3" />
  </g>
  <rect
    x="58"
    y="62"
    width="124"
    height="30"
    rx="15"
    fill="#ffffff"
    stroke="#0a1a2e"
    stroke-opacity=".12"
  />
  <circle cx="78" cy="77" r="5" fill="#14989e" />
  <text
    x="94"
    y="82"
    font-family="Arial, sans-serif"
    font-size="11"
    font-weight="700"
    letter-spacing="2"
    fill="#41506a"
  >
    ACCESS
  </text>
  <text
    x="58"
    y="172"
    font-family="Arial, sans-serif"
    font-size="44"
    font-weight="800"
    fill="#0a1a2e"
  >
    Custom portals
  </text>
  <text
    x="58"
    y="226"
    font-family="Arial, sans-serif"
    font-size="44"
    font-weight="800"
    fill="#0a1a2e"
  >
    for service teams
  </text>
  <text
    x="60"
    y="304"
    font-family="Arial, sans-serif"
    font-size="14"
    font-weight="700"
    letter-spacing="3"
    fill="#0f7a83"
  >
    PORTAL DEVELOPMENT
  </text>
  <rect
    x="60"
    y="334"
    width="282"
    height="76"
    rx="18"
    fill="#ffffff"
    stroke="#0a1a2e"
    stroke-opacity=".08"
  />
  <rect
    x="84"
    y="360"
    width="70"
    height="8"
    rx="4"
    fill="#14989e"
    fill-opacity=".85"
  />
  <rect
    x="84"
    y="382"
    width="210"
    height="8"
    rx="4"
    fill="#0a1a2e"
    fill-opacity=".18"
  />
  <rect
    x="84"
    y="402"
    width="160"
    height="8"
    rx="4"
    fill="#0a1a2e"
    fill-opacity=".12"
  />
  <g>
    <rect x="530" y="130" width="270" height="266" rx="24" fill="#0a1a2e" />
    <rect x="558" y="164" width="214" height="42" rx="12" fill="#122642" />
    <rect x="558" y="228" width="96" height="112" rx="16" fill="#122642" />
    <rect x="676" y="228" width="96" height="112" rx="16" fill="#122642" />
    <circle
      cx="606"
      cy="270"
      r="20"
      fill="#46c7d8"
      fill-opacity=".16"
      stroke="#46c7d8"
      stroke-width="3"
    />
    <circle
      cx="724"
      cy="270"
      r="20"
      fill="#46c7d8"
      fill-opacity=".16"
      stroke="#46c7d8"
      stroke-width="3"
    />
    <rect
      x="585"
      y="308"
      width="42"
      height="7"
      rx="3.5"
      fill="#8aa0b9"
      fill-opacity=".45"
    />
    <rect
      x="703"
      y="308"
      width="42"
      height="7"
      rx="3.5"
      fill="#8aa0b9"
      fill-opacity=".45"
    />
    <rect x="584" y="181" width="106" height="8" rx="4" fill="#46c7d8" />
  </g>
  <rect x="0" y="478" width="900" height="62" fill="#0a1a2e" />
  <text
    x="60"
    y="516"
    font-family="Arial, sans-serif"
    font-size="14"
    font-weight="700"
    letter-spacing="2"
    fill="#46c7d8"
  >
    FAITHFUL SOFTWARE SOLUTIONS
  </text>
</svg>
